<?xml version="1.0" standalone="no"?><!DOCTYPE svg PUBLIC "-//W3C//DTD SVG 1.1//EN" "http://www.w3.org/Graphics/SVG/1.1/DTD/svg11.dtd"><svg t="1778661556697" class="icon" viewBox="0 0 1108 1024" version="1.1" xmlns="http://www.w3.org/2000/svg" p-id="7720" xmlns:xlink="http://www.w3.org/1999/xlink" width="216.40625" height="200" color="#047857"><path d="M7.447273 712.455758c139.512242-94.083879 332.396606-170.542545 553.332363-209.764849a1493.426424 1493.426424 0 0 1 546.133334 0l-172.032-168.060121h88.12606l-189.160727-185.188849h83.409455l-152.917334-148.945454-153.910303 148.945454h84.402424l-62.060606 60.571152-109.723151-95.076849-152.917333 132.313213h83.409454l-91.353212 79.189333-34.505697-27.554909-152.917333 122.135273h83.409454l-189.160727 151.179636h106.247758L0 712.455758zM594.540606 247.249455z" fill="#10b981" p-id="7721" data-spm-anchor-id="a313x.search_index.0.i2.75e03a81283p9l" class=""></path><path d="M1098.72097 552.339394s-494.002424-114.936242-1068.683637 218.205091c11.667394 23.086545 138.022788 241.291636 138.022788 241.291636s218.949818-459.496727 930.660849-459.496727z" fill="#10b981" p-id="7722"></path><path d="M1087.301818 586.100364a1033.433212 1033.433212 0 0 0-620.60606 218.205091c-134.299152 107.48897 69.259636 206.785939 413.820121 219.694545 22.838303-23.086545 114.688-126.355394 137.774545-148.945455-792.886303 21.348848-172.280242-208.523636 69.011394-288.954181z" fill="#10b981" p-id="7723"></path></svg>